<?xml version="1.0" encoding="utf-8"?>
<!-- Generator: Adobe Illustrator 20.1.0, SVG Export Plug-In . SVG Version: 6.00 Build 0)  -->
<svg version="1.1" id="Layer_1" xmlns="http://www.w3.org/2000/svg" xmlns:xlink="http://www.w3.org/1999/xlink" x="0px" y="0px"
	 viewBox="0 0 1000 1000" style="enable-background:new 0 0 1000 1000;" xml:space="preserve">
<style type="text/css">
	.st0{fill:#CCCCCC;}
</style>
<path class="st0" d="M485.1,653.4c0-45.9,6.7-80.7,20.1-104.4c13.4-23.7,34.7-39.3,64-46.8v-4.5c-29.2-7.5-50.6-23.1-64-47
	c-13.4-23.9-20.1-60.3-20.1-109.2V170.8c0-38.4-9.3-67.7-27.8-87.6c-18.5-20-48.7-30.9-90.6-32.8V0c52.4,0,92.7,14.5,120.7,43.4
	c28,28.9,42,71.4,42,127.4v196c0,37.3,8.2,65,24.6,83.1c16.4,18.1,42.9,27.5,79.3,28.3V523c-69.3,1.5-104,40.5-104,117v188.7
	c0,57.9-12.4,100.9-37.3,129.1c-24.9,28.2-66.7,42.3-125.4,42.3v-51c42.5-0.7,72.8-10.5,91.1-29.4c18.2-18.8,27.3-47.5,27.3-85.9
	V653.4z"/>
</svg>
