<svg xmlns="http://www.w3.org/2000/svg" style="width:0; height:0; visibility:hidden; display:none">
<symbol id="ico-add" viewBox="0 0 24 24"><g id="Symbols" stroke="none" stroke-width="1" fill-rule="evenodd"> <g id="ico/add/24"> <polygon id="Shape" points="20 13.1428571 13.1428571 13.1428571 13.1428571 20 10.8571429 20 10.8571429 13.1428571 4 13.1428571 4 10.8571429 10.8571429 10.8571429 10.8571429 4 13.1428571 4 13.1428571 10.8571429 20 10.8571429"/> </g> </g></symbol>
<symbol id="ico-ascending" viewBox="0 0 24 24"><g id="Symbols" stroke="none" stroke-width="1" fill-rule="evenodd"> <g id="ico/ascending/24"> <path d="M11,12 L11,14 L19,14 L19,12 L11,12 L11,12 Z M11,6 L11,8 L15,8 L15,6 L11,6 L11,6 Z M11,18 L11,20 L23,20 L23,18 L11,18 L11,18 Z M7,8 L9.5,8 L6,4.5 L2.5,8 L5,8 L5,21 L7,21 L7,8 Z" id="Shape"/> </g> </g></symbol>
<symbol id="ico-box-checked" viewBox="0 0 24 24"><g id="Symbols" stroke="none" stroke-width="1" fill-rule="evenodd"> <g id="ico/box-checked/24"> <path d="M19.778,2 L4.222,2 C2.994,2 2,2.996 2,4.222 L2,19.778 C2,21.004 2.994,22 4.222,22 L19.778,22 C21.006,22 22,21.004 22,19.778 L22,4.222 C22,2.996 21.006,2 19.778,2 Z M9.778,17.556 L4.222,12 L5.794,10.428 L9.778,14.412 L18.206,5.984 L19.778,7.556 L9.778,17.556 Z" id="Shape"/> </g> </g></symbol>
<symbol id="ico-box" viewBox="0 0 24 24"><g id="Symbols" stroke="none" stroke-width="1" fill-rule="evenodd"> <g id="ico/box/24" stroke="#D3D3D3"> <path d="M19.778,2 L4.222,2 C2.994,2 2,2.996 2,4.222 L2,19.778 C2,21.004 2.994,22 4.222,22 L19.778,22 C21.006,22 22,21.004 22,19.778 L22,4.222 C22,2.996 21.006,2 19.778,2 Z" id="Shape"/> </g> </g></symbol>
<symbol id="ico-calendar" viewBox="0 0 24 24"><g id="Symbols" stroke="none" stroke-width="1" fill-rule="evenodd"> <g id="ico/calendar/24"> <path d="M19,20 L5,20 L5,9 L19,9 L19,20 Z M16,2 L16,4 L8,4 L8,2 L6,2 L6,4 L5,4 C3.89,4 3,4.89 3,6 L3,20 C3,21.1045695 3.8954305,22 5,22 L19,22 C20.1045695,22 21,21.1045695 21,20 L21,6 C21,4.89 20.1,4 19,4 L18,4 L18,2 L16,2 Z M17,13 L12,13 L12,18 L17,18 L17,13 Z" id="Shape"/> </g> </g></symbol>
<symbol id="ico-check-on" viewBox="0 0 16 16"><g id="Symbols" stroke="none" stroke-width="1" fill-rule="evenodd"> <g id="ico/check-on/16"> <g id="ipt/check/on"> <path d="M1,3.00947762 L1,3.00947762 L1,12.9905224 C1,14.1068145 1.8953964,15 3.00947762,15 L12.9905224,15 C14.1068145,15 15,14.1046036 15,12.9905224 L15,3.00947762 C15,1.89318549 14.1046036,1 12.9905224,1 L3.00947762,1 C1.89318549,1 1,1.8953964 1,3.00947762 L1,3.00947762 Z M0,3.00947762 C0,1.34738902 1.33663106,0 3.00947762,0 L12.9905224,0 C14.652611,0 16,1.33663106 16,3.00947762 L16,12.9905224 C16,14.652611 14.6633689,16 12.9905224,16 L3.00947762,16 C1.34738902,16 0,14.6633689 0,12.9905224 L0,3.00947762 L0,3.00947762 Z" id="Checkbox-#3-2"/> <path d="M14.46375,4.39625 C14.5179169,4.44680581 14.545,4.50999962 14.545,4.58583333 C14.545,4.66166705 14.5179169,4.7266664 14.46375,4.78083333 L6.62583333,12.61875 C6.5716664,12.6693058 6.50756981,12.6945833 6.43354167,12.6945833 C6.35951352,12.6945833 6.29541694,12.6693058 6.24125,12.61875 L4.48083333,10.8583333 L4.10166667,10.4791667 L1.98375,8.36125 C1.93319419,8.30708306 1.90791667,8.24298648 1.90791667,8.16895833 C1.90791667,8.09493019 1.93319419,8.0308336 1.98375,7.97666667 L2.74416667,7.22166667 C2.79472247,7.16749973 2.85791629,7.14041667 2.93375,7.14041667 C3.00958371,7.14041667 3.07277752,7.16749973 3.12333333,7.22166667 L6.24125,10.3341667 C6.29541694,10.3883336 6.35951352,10.4154167 6.43354167,10.4154167 C6.50756981,10.4154167 6.5716664,10.3883336 6.62583333,10.3341667 L13.3079167,3.65208333 C13.3620836,3.5979164 13.4261802,3.57083333 13.5002083,3.57083333 C13.5742365,3.57083333 13.6383331,3.5979164 13.6925,3.65208333 L14.46375,4.39625 Z" id="Check-Icon"/> </g> </g> </g></symbol>
<symbol id="ico-check" viewBox="0 0 16 16"><g id="Symbols" stroke="none" stroke-width="1" fill-rule="evenodd"> <g id="ico/check/16"> <g id="ipt/check/default"> <path d="M1,3.00947762 L1,3.00947762 L1,12.9905224 C1,14.1068145 1.8953964,15 3.00947762,15 L12.9905224,15 C14.1068145,15 15,14.1046036 15,12.9905224 L15,3.00947762 C15,1.89318549 14.1046036,1 12.9905224,1 L3.00947762,1 C1.89318549,1 1,1.8953964 1,3.00947762 L1,3.00947762 Z M0,3.00947762 C0,1.34738902 1.33663106,0 3.00947762,0 L12.9905224,0 C14.652611,0 16,1.33663106 16,3.00947762 L16,12.9905224 C16,14.652611 14.6633689,16 12.9905224,16 L3.00947762,16 C1.34738902,16 0,14.6633689 0,12.9905224 L0,3.00947762 L0,3.00947762 Z" id="Checkbox-#7-2-Copy"/> </g> </g> </g></symbol>
<symbol id="ico-chevron-down" viewBox="0 0 16 16"><g id="Symbols" stroke="none" stroke-width="1" fill-rule="evenodd"> <g id="ico/chevron-down/16"> <polygon id="Shape" points="3.41 4.58 8 9.17 12.59 4.58 14 6 8 12 2 6"/> </g> </g></symbol>
<symbol id="ico-chevron-left" viewBox="0 0 16 16"><g id="Symbols" stroke="none" stroke-width="1" fill-rule="evenodd"> <g id="ico/chevron-left/16"> <polygon id="Shape" points="11.41 12.58 6.83 8 11.41 3.41 10 2 4 8 10 14"/> </g> </g></symbol>
<symbol id="ico-chevron-right" viewBox="0 0 16 16"><g id="Symbols" stroke="none" stroke-width="1" fill-rule="evenodd"> <g id="ico/chevron-right/16"> <polygon id="Shape" points="4.59 12.58 9.17 8 4.59 3.41 6 2 12 8 6 14"/> </g> </g></symbol>
<symbol id="ico-chevron-up" viewBox="0 0 16 16"><g id="Symbols" stroke="none" stroke-width="1" fill-rule="evenodd"> <g id="ico/chevron-up/16"> <polygon id="Shape" points="3.41 11.41 8 6.83 12.59 11.41 14 10 8 4 2 10"/> </g> </g></symbol>
<symbol id="ico-close-x" viewBox="0 0 24 24"><g id="Symbols" stroke="none" stroke-width="1" fill-rule="evenodd"> <g id="ico/close-x/24"> <polygon id="Shape" points="22 4.02 19.98 2 12 9.98 4.02 2 2 4.02 9.98 12 2 19.98 4.02 22 12 14.02 19.98 22 22 19.98 14.02 12"/> </g> </g></symbol>
<symbol id="ico-copy" viewBox="0 0 24 24"><g id="Symbols" stroke="none" stroke-width="1" fill-rule="evenodd"> <g id="ico/copy/24"> <polygon id="Shape" points="17.118 2 5.164 2 2 2 2 16.414 5.164 16.414 5.164 5.516 17.118 5.516"/> <rect id="Rectangle-path" x="7.274" y="7.624" width="14.726" height="14.376"/> </g> </g></symbol>
<symbol id="ico-critical-red" viewBox="0 0 24 24"><g id="Symbols" stroke="none" stroke-width="1" fill-rule="evenodd"> <g id="ico/critical-red/24"> <path d="M12,2 C6.478,2 2,6.478 2,12 C2,17.522 6.478,22 12,22 C17.522,22 22,17.522 22,12 C22,6.478 17.522,2 12,2 Z M11.034,11.052 C10.868,10.2 10.742,9.516 10.66,9 C10.578,8.484 10.524,8.108 10.498,7.87 C10.474,7.626 10.464,7.412 10.464,7.232 C10.448,6.844 10.596,6.466 10.872,6.194 C11.5,5.668 12.408,5.668 13.036,6.194 C13.312,6.466 13.46,6.844 13.444,7.232 C13.444,7.41 13.432,7.624 13.41,7.87 C13.386,8.118 13.336,8.492 13.254,8.994 C13.172,9.5 13.048,10.184 12.88,11.046 C12.712,11.908 12.488,13.044 12.206,14.458 L11.706,14.458 C11.426,13.048 11.202,11.912 11.034,11.052 Z M10.928,16.126 C11.496,15.552 12.418,15.554 12.986,16.128 C13.258,16.404 13.41,16.776 13.412,17.164 C13.422,17.548 13.266,17.918 12.984,18.176 C12.402,18.714 11.508,18.714 10.924,18.176 C10.644,17.916 10.488,17.548 10.496,17.164 C10.492,16.772 10.648,16.394 10.93,16.122 L10.928,16.126 Z" id="Shape"/> </g> </g></symbol>
<symbol id="ico-crumb-left" viewBox="0 0 24 24"><g id="Symbols" stroke="none" stroke-width="1" fill-rule="evenodd"> <g id="ico/crumb-left/24"> <path d="M9.85400014,12.0000004 L18.2960004,4.12400008 C18.4400005,3.99000007 18.5120005,3.83600007 18.5120005,3.66200006 C18.5120005,3.48800005 18.4400005,3.33400005 18.2960004,3.20000004 L17.2220004,2.20000001 C17.0800004,2.066 16.9140004,2 16.7280004,2 C16.5420004,2 16.3780004,2.068 16.2340004,2.20000001 L6.22400001,11.5380003 C6.082,11.6720004 6.01,11.8260004 6.01,12.0000004 C6.01,12.1740004 6.082,12.3280004 6.22400001,12.4620004 L16.2320004,21.8000007 C16.3760004,21.9340007 16.5400004,22.0000007 16.7260004,22.0000007 C16.9120004,22.0000007 17.0760004,21.9340007 17.2200004,21.8000007 L18.2940004,20.7980007 C18.4380005,20.6640007 18.5100005,20.5100007 18.5100005,20.3360007 C18.5100005,20.1620007 18.4380005,20.0100007 18.2940004,19.8760007 L9.85400014,12.0000004 L9.85400014,12.0000004 Z" id="Shape"/> </g> </g></symbol>
<symbol id="ico-crumb-right" viewBox="0 0 24 24"><g id="Symbols" stroke="none" stroke-width="1" fill-rule="evenodd"> <g id="ico/crumb-right/24"> <path d="M6.226,19.876 C6.082,20.01 6.01,20.162 6.01,20.336 C6.01,20.51 6.082,20.664 6.226,20.798 L7.3,21.8 C7.444,21.934 7.608,22 7.794,22 C7.98,22 8.146,21.934 8.288,21.8 L18.296,12.462 C18.438,12.328 18.51,12.176 18.51,12 C18.51,11.828 18.438,11.674 18.296,11.538 L8.288,2.2 C8.144,2.066 7.978,2 7.794,2 C7.608,2 7.442,2.068 7.3,2.2 L6.226,3.202 C6.082,3.336 6.01,3.49 6.01,3.664 C6.01,3.838 6.082,3.99 6.226,4.126 L14.666,12 L6.226,19.876 L6.226,19.876 Z" id="Shape"/> </g> </g></symbol>
<symbol id="ico-dashboard" viewBox="0 0 24 24"><g id="Symbols" stroke="none" stroke-width="1" fill-rule="evenodd"> <g id="ico/dashboard/24"> <polygon id="Shape" points="22 10.318 12 3 2 10.318 4.422 10.318 4.422 21 9.658 21 9.658 13.376 14.342 13.376 14.342 21 19.578 21 19.578 10.318"/> </g> </g></symbol>
<symbol id="ico-data" viewBox="0 0 24 24"><g id="Symbols" stroke="none" stroke-width="1" fill-rule="evenodd"> <g id="ico/data/24"> <path d="M12,3 C7.58,3 4,4.79 4,7 C4,9.21 7.58,11 12,11 C16.42,11 20,9.21 20,7 C20,4.79 16.42,3 12,3 L12,3 Z M4,9 L4,12 C4,14.21 7.58,16 12,16 C16.42,16 20,14.21 20,12 L20,9 C20,11.21 16.42,13 12,13 C7.58,13 4,11.21 4,9 L4,9 Z M4,14 L4,17 C4,19.21 7.58,21 12,21 C16.42,21 20,19.21 20,17 L20,14 C20,16.21 16.42,18 12,18 C7.58,18 4,16.21 4,14 L4,14 Z" id="Shape"/> </g> </g></symbol>
<symbol id="ico-delete" viewBox="0 0 24 24"><g id="Symbols" stroke="none" stroke-width="1" fill-rule="evenodd"> <g id="ico/delete/24"> <path d="M19.5555556,3.11111111 L15.6666667,3.11111111 L14.5555556,2 L9,2 L7.88888889,3.11111111 L4,3.11111111 L4,5.33333333 L19.5555556,5.33333333 L19.5555556,3.11111111 Z M5.11111111,19.7777778 C5.11111111,21.0050772 6.10603389,22 7.33333333,22 L16.2222222,22 C17.4495217,22 18.4444444,21.0050772 18.4444444,19.7777778 L18.4444444,6.44444444 L5.11111111,6.44444444 L5.11111111,19.7777778 L5.11111111,19.7777778 Z" id="Shape"/> </g> </g></symbol>
<symbol id="ico-descending" viewBox="0 0 24 24"><g id="Symbols" stroke="none" stroke-width="1" fill-rule="evenodd"> <g id="ico/descending/24"> <path d="M11,13 L11,11 L19,11 L19,13 L11,13 L11,13 Z M11,19 L11,17 L15,17 L15,19 L11,19 L11,19 Z M11,7 L11,5 L23,5 L23,7 L11,7 L11,7 Z M7,17 L9.5,17 L6,20.5 L2.5,17 L5,17 L5,4 L7,4 L7,17 Z" id="Shape"/> </g> </g></symbol>
<symbol id="ico-edit" viewBox="0 0 24 24"><g id="Symbols" stroke="none" stroke-width="1" fill-rule="evenodd"> <g id="ico/edit/24"> <path d="M20.71,7.04 C21.1,6.65 21.1,6 20.71,5.63 L18.37,3.29 C18,2.9 17.35,2.9 16.96,3.29 L15.12,5.12 L18.87,8.87 L20.71,7.04 Z M3,17.25 L3,21 L6.75,21 L17.81,9.93 L14.06,6.18 L3,17.25 Z" id="Shape"/> </g> </g></symbol>
<symbol id="ico-export" viewBox="0 0 24 24"><g id="Symbols" stroke="none" stroke-width="1" fill-rule="evenodd"> <g id="ico/export/24"> <path d="M22,9.248 L19.768,7.018 L12.76,14 L10,11.24 L16.982,4.23 L14.752,2 L22,2 L22,9.248 Z M22,12 L22,16.444 C22,19.556 19.556,22 16.444,22 L7.556,22 C4.444,22 2,19.556 2,16.444 L2,7.556 C2,4.444 4.444,2 7.556,2 L12,2 L12,4.888 L7.556,4.888 C6,4.888 4.89,6 4.89,7.554 L4.89,16.442 C4.89,17.998 6.002,19.108 7.556,19.108 L16.444,19.108 C18,19.108 19.11,17.996 19.11,16.442 L19.11,12 L22,12 Z" id="Shape"/> </g> </g></symbol>
<symbol id="ico-group" viewBox="0 0 24 24"><g id="Symbols" stroke="none" stroke-width="1" fill-rule="evenodd"> <g id="ico/group/24"> <path d="M15.6363636,13.2180451 C15.3727273,13.2180451 15.0727273,13.2180451 14.7545455,13.2631579 C15.8090909,14.0210526 16.5454545,15.0225564 16.5454545,16.3759398 L16.5454545,18.6315789 L22,18.6315789 L22,16.3759398 C22,14.2736842 17.7545455,13.2180451 15.6363636,13.2180451 L15.6363636,13.2180451 Z M8.36363636,13.2180451 C6.24545455,13.2180451 2,14.2736842 2,16.3759398 L2,18.6315789 L14.7272727,18.6315789 L14.7272727,16.3759398 C14.7272727,14.2736842 10.4818182,13.2180451 8.36363636,13.2180451 L8.36363636,13.2180451 Z M8.36363636,11.4135338 C9.8698675,11.4135338 11.0909091,10.201673 11.0909091,8.70676692 C11.0909091,7.21186083 9.8698675,6 8.36363636,6 C6.85740523,6 5.63636364,7.21186083 5.63636364,8.70676692 C5.63636364,10.201673 6.85740523,11.4135338 8.36363636,11.4135338 L8.36363636,11.4135338 Z M15.6363636,11.4135338 C17.1425948,11.4135338 18.3636364,10.201673 18.3636364,8.70676692 C18.3636364,7.21186083 17.1425948,6 15.6363636,6 C14.1301325,6 12.9090909,7.21186083 12.9090909,8.70676692 C12.9090909,10.201673 14.1301325,11.4135338 15.6363636,11.4135338 L15.6363636,11.4135338 Z" id="Shape"/> </g> </g></symbol>
<symbol id="ico-hamburger" viewBox="0 0 24 24"><g id="Symbols" stroke="none" stroke-width="1" fill-rule="evenodd"> <g id="ico/hamburger/24"> <path d="M21.1648352,16.1908092 L2.85114885,16.1908092 C2.62537463,16.1908092 2.42957043,16.2607393 2.26573427,16.3986014 C2.1018981,16.5364635 2.01798202,16.7002997 2.01798202,16.8901099 L2.01798202,18.2887113 C2.01798202,18.4785215 2.0999001,18.6423576 2.26573427,18.7802198 C2.43156843,18.9180819 2.62537463,18.988012 2.85114885,18.988012 L21.1668332,18.988012 C21.3926074,18.988012 21.5884116,18.9180819 21.7522478,18.7802198 C21.9160839,18.6403596 22,18.4785215 22,18.2887113 L22,16.8901099 C22,16.7002997 21.9180819,16.5364635 21.7522478,16.3986014 C21.5864136,16.2607393 21.3926074,16.1908092 21.1648352,16.1908092 L21.1648352,16.1908092 Z M21.7522478,5.20979021 C21.5884116,5.07192807 21.3926074,5.001998 21.1668332,5.001998 L2.85114885,5.001998 C2.62537463,5.001998 2.42957043,5.07192807 2.26573427,5.20979021 C2.1018981,5.34765235 2.01798202,5.51148851 2.01798202,5.7012987 L2.01798202,7.0999001 C2.01798202,7.28971029 2.0999001,7.45354645 2.26573427,7.59140859 C2.43156843,7.72927073 2.62537463,7.7992008 2.85114885,7.7992008 L21.1668332,7.7992008 C21.3926074,7.7992008 21.5884116,7.72927073 21.7522478,7.59140859 C21.9160839,7.45354645 22,7.28971029 22,7.0999001 L22,5.7012987 C21.998002,5.51348651 21.9160839,5.34765235 21.7522478,5.20979021 L21.7522478,5.20979021 Z M21.1648352,10.5964036 L2.85114885,10.5964036 C2.62537463,10.5964036 2.42957043,10.6663337 2.26573427,10.8041958 C2.1018981,10.9420579 2.01798202,11.1058941 2.01798202,11.2957043 L2.01798202,12.6943057 C2.01798202,12.8841159 2.0999001,13.047952 2.26573427,13.1858142 C2.43156843,13.3236763 2.62537463,13.3936064 2.85114885,13.3936064 L21.1668332,13.3936064 C21.3926074,13.3936064 21.5884116,13.3236763 21.7522478,13.1858142 C21.9160839,13.047952 22,12.8841159 22,12.6943057 L22,11.2957043 C22,11.1058941 21.9180819,10.9420579 21.7522478,10.8041958 C21.5864136,10.6663337 21.3926074,10.5964036 21.1648352,10.5964036 L21.1648352,10.5964036 Z" id="Shape"/> </g> </g></symbol>
<symbol id="ico-help" viewBox="0 0 24 24"><g id="Symbols" stroke="none" stroke-width="1" fill-rule="evenodd"> <g id="ico/help/24"> <path d="M12,2 C6.478,2 2,6.478 2,12 C2,17.522 6.478,22 12,22 C17.522,22 22,17.522 22,12 C22,6.478 17.522,2 12,2 Z M12.074,5.812 C10.884,5.812 8.766,6.434 8.766,6.926 C8.766,7.002 8.766,7.058 8.802,7.136 L9.266,8.42 C9.284,8.516 9.37,8.61 9.46,8.61 C9.634,8.61 10.58,7.988 11.682,7.988 C12.642,7.988 13.158,8.46 13.158,9.328 C13.158,10.348 12.536,10.728 11.894,10.97 C11.272,11.198 10.634,11.272 10.634,11.726 L10.634,14.09 C10.634,14.432 10.686,14.486 11.008,14.486 L12.304,14.486 C12.624,14.486 12.676,14.432 12.676,14.09 L12.676,12.806 C13.726,12.426 15.556,11.784 15.556,9.348 C15.556,7.286 14.224,5.812 12.074,5.812 L12.074,5.812 Z M11.72,15.588 C10.866,15.588 10.206,16.244 10.206,17.098 C10.206,17.898 10.866,18.592 11.72,18.592 C12.536,18.592 13.21,17.898 13.21,17.098 C13.21,16.26 12.554,15.588 11.72,15.588 L11.72,15.588 Z" id="Shape"/> </g> </g></symbol>
<symbol id="ico-mobility" viewBox="0 0 24 24"><g id="Symbols" stroke="none" stroke-width="1" fill-rule="evenodd"> <g id="ico/mobility/24"> <path d="M11.1748252,12.4993289 C11.5164835,11.7727069 11.8061938,11.2035794 12.043956,10.7919463 C12.2217782,10.485906 12.3896104,10.2281879 12.5454545,10.0170022 C12.7012987,9.80760626 12.8911089,9.60357942 13.1148851,9.40313199 C13.3386613,9.20447427 13.5944056,9.0541387 13.8841159,8.95391499 C14.1738262,8.85369128 14.4975025,8.80357942 14.8531469,8.80357942 L17.7082917,8.80357942 L17.7082917,10.7221477 C17.7082917,10.8080537 17.7422577,10.8832215 17.8141858,10.9458613 C17.8841159,11.0085011 17.968032,11.0407159 18.0639361,11.0407159 C18.1678322,11.0407159 18.2537463,11.0102908 18.3196803,10.9512304 L21.8881119,7.75480984 C21.956044,7.69574944 21.99001,7.61879195 21.99001,7.52572707 C21.99001,7.43266219 21.956044,7.3557047 21.8881119,7.2966443 L18.3316683,4.11096197 C18.2417582,4.04474273 18.1518482,4.01073826 18.0639361,4.01073826 C17.96004,4.01073826 17.8741259,4.04116331 17.8081918,4.10022371 C17.7422577,4.15928412 17.7082917,4.23624161 17.7082917,4.32930649 L17.7082917,6.24608501 L14.8551449,6.24608501 C14.3496503,6.24608501 13.8741259,6.301566 13.4285714,6.41073826 C12.983017,6.51991051 12.5874126,6.65950783 12.2417582,6.8295302 C11.8961039,6.99955257 11.5624376,7.22684564 11.2387612,7.51319911 C10.9150849,7.79955257 10.6413586,8.07516779 10.4135864,8.34183445 C10.1878122,8.60671141 9.94805195,8.94138702 9.7002997,9.34049217 C9.45054945,9.73959732 9.25074925,10.0903803 9.0989011,10.3892617 C8.94705295,10.6899329 8.76323676,11.058613 8.54745255,11.4970917 C8.20579421,12.2237136 7.91608392,12.7928412 7.67832168,13.2044743 C7.5004995,13.5105145 7.33266733,13.7682327 7.17682318,13.9776286 C7.02097902,14.1870246 6.83116883,14.3910515 6.60739261,14.5914989 C6.38361638,14.7919463 6.12787213,14.9404922 5.83816184,15.0407159 C5.54845155,15.1409396 5.22477522,15.1910515 4.86913087,15.1910515 L2.37162837,15.1910515 C2.26773227,15.1910515 2.18181818,15.2214765 2.11588412,15.2805369 C2.04995005,15.3395973 2.01598402,15.4165548 2.01598402,15.5096197 L2.01598402,17.4281879 C2.01598402,17.5212528 2.04995005,17.5982103 2.11788212,17.6572707 C2.18381618,17.7163311 2.26973027,17.7467562 2.37362637,17.7467562 L4.87112887,17.7467562 C5.37662338,17.7467562 5.85214785,17.6912752 6.2977023,17.5821029 C6.74325674,17.4729306 7.13886114,17.3333333 7.48451548,17.163311 C7.83016983,16.9932886 8.16383616,16.7659955 8.48751249,16.4796421 C8.81118881,16.1932886 9.08491508,15.9176734 9.31268731,15.6510067 C9.53846154,15.38434 9.77622378,15.0514541 10.025974,14.652349 C10.2757243,14.2532438 10.4755245,13.9042506 10.6273726,13.6035794 C10.7752248,13.3082774 10.959041,12.9395973 11.1748252,12.4993289 L11.1748252,12.4993289 L11.1748252,12.4993289 Z" id="Shape"/> <path d="M2.36763237,8.80357942 L4.86513487,8.80357942 C5.19280719,8.80357942 5.49450549,8.85190157 5.77222777,8.94854586 C6.05194805,9.04519016 6.28571429,9.16152125 6.47552448,9.29753915 C6.66533467,9.43355705 6.85514486,9.62147651 7.04495504,9.86129754 C7.23476523,10.1011186 7.38461538,10.3123043 7.4965035,10.4948546 C7.60839161,10.6774049 7.74625375,10.9190157 7.91008991,11.2196868 C8.48151848,10.0152125 8.99100899,9.10604027 9.43856144,8.49395973 C8.24975025,6.99597315 6.72527473,6.24787472 4.86713287,6.24787472 L2.36963037,6.24787472 C2.26573427,6.24787472 2.17982018,6.27829978 2.11388611,6.33736018 C2.04795205,6.39642058 2.01398601,6.47337808 2.01398601,6.56644295 L2.01398601,8.48322148 C2.01398601,8.57628635 2.04795205,8.65324385 2.11388611,8.71230425 C2.17782218,8.77494407 2.26173826,8.80357942 2.36763237,8.80357942 L2.36763237,8.80357942 L2.36763237,8.80357942 Z" id="Shape"/> <path d="M18.3336663,13.0595078 C18.2437562,12.9914989 18.1558442,12.9592841 18.0659341,12.9592841 C17.962038,12.9592841 17.8761239,12.9897092 17.8101898,13.0487696 C17.7442557,13.10783 17.7102897,13.1847875 17.7102897,13.2778523 L17.7102897,15.1964206 L14.8551449,15.1964206 C14.5274725,15.1964206 14.2257742,15.1480984 13.9460539,15.0514541 C13.6683317,14.9548098 13.4325674,14.8384787 13.2447552,14.7024609 C13.0549451,14.566443 12.8651349,14.3785235 12.6753247,14.1387025 C12.4855145,13.8988814 12.3356643,13.6876957 12.2237762,13.5051454 C12.1118881,13.3225951 11.974026,13.0809843 11.8121878,12.7803132 C11.2387612,13.9794183 10.7352647,14.8868009 10.2957043,15.5060403 C10.4955045,15.7655481 10.7032967,15.9982103 10.9190809,16.2004474 C11.1348651,16.4026846 11.3386613,16.5816555 11.5324675,16.7337808 C11.7262737,16.8876957 11.9440559,17.0201342 12.1898102,17.1328859 C12.4355644,17.2456376 12.6513487,17.3404922 12.8371628,17.4174497 C13.022977,17.4944072 13.2567433,17.5552573 13.5404595,17.6017897 C13.8221778,17.6483221 14.0619381,17.6823266 14.2537463,17.7073826 C14.4475524,17.7306488 14.7112887,17.7467562 15.044955,17.7574944 C15.3806194,17.766443 15.6503497,17.7700224 15.8581419,17.766443 C16.0659341,17.7628635 16.3676324,17.7592841 16.7612388,17.7574944 C17.1548452,17.753915 17.4705295,17.7521253 17.7082917,17.7521253 L17.7082917,19.6689038 C17.7082917,19.7565996 17.7442557,19.8299776 17.8141858,19.8926174 C17.8841159,19.9552573 17.968032,19.987472 18.0659341,19.987472 C18.1698302,19.987472 18.2557443,19.957047 18.3216783,19.8979866 L21.8901099,16.701566 C21.956044,16.6425056 21.99001,16.5655481 21.99001,16.4724832 C21.99001,16.3794183 21.956044,16.3024609 21.8881119,16.2434004 L18.3336663,13.0595078 L18.3336663,13.0595078 Z" id="Shape"/> </g> </g></symbol>
<symbol id="ico-nodes" viewBox="0 0 24 24"><g id="Symbols" stroke="none" stroke-width="1" fill-rule="evenodd"> <g id="ico/nodes/24"> <path d="M21.2860006,13.1440003 L2.71400002,13.1440003 C2.52000001,13.1440003 2.35200001,13.2580003 2.21200001,13.4840003 C2.07,13.7100003 2,13.9760003 2,14.2860003 L2,18.8580004 C2,19.1680004 2.07,19.4360004 2.21200001,19.6620004 C2.35400001,19.8880005 2.52200001,20.0020005 2.71400002,20.0020005 L21.2860006,20.0020005 C21.4800006,20.0020005 21.6480006,19.8900005 21.7880006,19.6620004 C21.9300006,19.4360004 22.0000006,19.1680004 22.0000006,18.8580004 L22.0000006,14.2860003 C22.0000006,13.9760003 21.9300006,13.7080003 21.7880006,13.4820003 C21.6460006,13.2560003 21.4780006,13.1440003 21.2860006,13.1440003 L21.2860006,13.1440003 Z M15.5700004,17.8160004 L8.42800018,17.8160004 L8.42800018,15.5300003 L15.5700004,15.5300003 L15.5700004,17.8160004 L15.5700004,17.8160004 Z M21.7880006,4.34000001 C21.6460006,4.114 21.4800006,4 21.2860006,4 L2.71400002,4 C2.52000001,4 2.35200001,4.114 2.21200001,4.34000001 C2.07,4.56400002 2,4.83400002 2,5.14400003 L2,9.71400016 C2,10.0240002 2.07,10.2920002 2.21200001,10.5180002 C2.35400001,10.7440002 2.52200001,10.8580002 2.71400002,10.8580002 L21.2860006,10.8580002 C21.4800006,10.8580002 21.6480006,10.7460002 21.7880006,10.5180002 C21.9300006,10.2920002 22.0000006,10.0240002 22.0000006,9.71400016 L22.0000006,5.14400003 C22.0000006,4.83400002 21.9300006,4.56600002 21.7880006,4.34000001 L21.7880006,4.34000001 Z M15.5700004,8.63800013 L8.42800018,8.63800013 L8.42800018,6.35200007 L15.5700004,6.35200007 L15.5700004,8.63800013 L15.5700004,8.63800013 Z" id="Shape"/> </g> </g></symbol>
<symbol id="ico-notification" viewBox="0 0 24 24"><g id="Symbols" stroke="none" stroke-width="1" fill-rule="evenodd"> <g id="ico/notification/24"> <path d="M21.998,17.26 C21.598,17.26 21.234,16.602 20.904,16.236 C20.576,15.87 20.234,15.406 19.882,14.822 C19.53,14.238 19.232,13.614 18.986,12.938 C18.742,12.262 18.542,11.446 18.384,10.482 C18.228,9.52 18.15,8.486 18.15,7.382 C18.15,6.172 17.682,5.05 16.744,4.012 C15.81,2.974 14.588,2.41 13.056,2.12 C13.06,2.11 12.582,2.002 12.062,2.002 C11.52,2.002 10.936,2.108 10.94,2.12 C9.46,2.394 8.188,2.972 7.25,4.01 C6.312,5.048 5.844,6.172 5.844,7.382 C5.844,8.488 5.766,9.522 5.61,10.484 C5.454,11.446 5.254,12.266 5.008,12.942 C4.764,13.618 4.466,14.248 4.112,14.832 C3.76,15.416 3.418,15.892 3.09,16.258 C2.766,16.626 2.4,16.976 2,17.31 C2,17.724 2.152,18.292 2.458,18.596 C2.762,18.898 3.122,19.26 3.538,19.26 L8.922,19.26 C8.922,20.26 9.222,20.612 9.824,21.208 C10.424,21.804 11.15,21.998 12,21.998 C12.85,21.998 13.574,21.858 14.176,21.262 C14.776,20.666 15.078,20.26 15.078,19.26 L20.462,19.26 C20.878,19.26 21.238,18.872 21.544,18.57 C21.848,18.268 22,18.26 21.998,17.26 L21.998,17.26 L21.998,17.26 Z" id="Shape"/> </g> </g></symbol>
<symbol id="ico-objectives" viewBox="0 0 24 24"><g id="Symbols" stroke="none" stroke-width="1" fill-rule="evenodd"> <g id="ico/objectives/24"> <path d="M15.334,12 C15.334,12.92 15.008,13.706 14.358,14.356 C13.708,15.006 12.922,15.332 12.002,15.332 C11.082,15.332 10.296,15.006 9.646,14.356 C8.996,13.706 8.67,12.92 8.67,12 C8.67,11.08 8.996,10.294 9.646,9.644 C10.296,8.994 11.08,8.666 12,8.666 C12.92,8.666 13.706,8.992 14.356,9.642 C15.008,10.294 15.334,11.08 15.334,12 L15.334,12 Z M17,12 C17,10.62 16.512,9.442 15.536,8.464 C14.558,7.488 13.38,7 12,7 C10.62,7 9.442,7.488 8.464,8.464 C7.486,9.44 7,10.62 7,12 C7,13.38 7.488,14.558 8.464,15.536 C9.44,16.514 10.62,17 12,17 C13.38,17 14.558,16.512 15.536,15.536 C16.51,14.558 17,13.38 17,12 L17,12 Z M18.666,12 C18.666,13.84 18.014,15.412 16.712,16.714 C15.41,18.016 13.84,18.666 12,18.666 C10.16,18.666 8.588,18.016 7.286,16.712 C5.984,15.408 5.332,13.84 5.332,12 C5.332,10.16 5.984,8.59 7.286,7.286 C8.588,5.982 10.16,5.332 12,5.334 C13.84,5.334 15.412,5.986 16.714,7.288 C18.016,8.59 18.666,10.16 18.666,12 L18.666,12 Z M20.334,12 C20.334,10.872 20.112,9.794 19.67,8.764 C19.228,7.734 18.634,6.85 17.892,6.108 C17.15,5.366 16.264,4.774 15.236,4.33 C14.208,3.886 13.128,3.664 11.998,3.666 C10.868,3.668 9.79,3.888 8.762,4.33 C7.734,4.772 6.848,5.364 6.106,6.108 C5.364,6.852 4.772,7.736 4.328,8.764 C3.886,9.792 3.664,10.87 3.664,12 C3.664,13.13 3.886,14.208 4.328,15.236 C4.77,16.264 5.364,17.15 6.106,17.892 C6.848,18.634 7.734,19.228 8.762,19.67 C9.79,20.112 10.87,20.334 11.998,20.334 C13.126,20.334 14.206,20.114 15.234,19.67 C16.262,19.226 17.148,18.634 17.89,17.892 C18.632,17.15 19.224,16.264 19.668,15.236 C20.112,14.206 20.334,13.128 20.334,12 L20.334,12 Z M22,12 C22,13.814 21.554,15.488 20.66,17.02 C19.766,18.552 18.552,19.766 17.02,20.66 C15.488,21.554 13.814,22 12,22 C10.186,22 8.512,21.554 6.98,20.66 C5.448,19.766 4.234,18.552 3.34,17.02 C2.446,15.488 2,13.814 2,12 C2,10.186 2.446,8.512 3.34,6.98 C4.234,5.448 5.448,4.234 6.98,3.34 C8.512,2.446 10.186,2 12,2 C13.814,2 15.488,2.446 17.02,3.34 C18.552,4.234 19.766,5.448 20.66,6.98 C21.554,8.512 22,10.186 22,12 L22,12 Z" id="Shape"/> </g> </g></symbol>
<symbol id="ico-ok-circle" viewBox="0 0 24 24"><g id="Symbols" stroke="none" stroke-width="1" fill-rule="evenodd"> <g id="ico/ok-circle/24"> <path d="M19.0529471,4.92507193 C15.1508492,1.02497602 8.82717283,1.02497602 4.92707293,4.92507193 C1.02497502,8.82716584 1.02497502,15.1508357 4.92707293,19.0529296 C8.82917083,22.9550235 15.1548452,22.9550235 19.0569431,19.0529296 C22.957043,15.1528337 22.955045,8.82716584 19.0529471,4.92507193 Z M16.8391608,8.93705584 L11.1748252,16.3516337 C10.993007,16.5893957 10.7172827,16.7292557 10.4195804,16.7352497 L10.4175824,16.7352497 L10.3956044,16.7352497 C10.1058941,16.7352497 9.83416583,16.6093757 9.64835165,16.3875977 L7.22277722,13.5204677 C7.05494505,13.3226657 6.97502498,13.0689197 6.997003,12.8091798 C7.01898102,12.5494398 7.14085914,12.3116778 7.33866134,12.1438458 C7.72227772,11.8181718 8.39360639,11.8741158 8.71728272,12.2577318 L10.3576424,14.1977897 L15.2807193,7.74824587 C15.5864136,7.34864588 16.2497502,7.25673788 16.6513487,7.56442987 C16.8591409,7.72227187 16.993007,7.95403986 17.026973,8.21178186 C17.0649351,8.47152185 16.997003,8.72926385 16.8391608,8.93705584 Z" id="Shape"/> </g> </g></symbol>
<symbol id="ico-pd" viewBox="0 0 24 24"><g id="Symbols" stroke="none" stroke-width="1" fill-rule="evenodd"> <g id="ico/pd/24"> <path d="M7.62,9.61 L6.19,9.61 L6.19,14.134 L7.62,14.134 C8.086,14.134 8.464,13.762 8.464,13.306 L8.464,10.438 C8.464,9.98 8.086,9.61 7.62,9.61 L7.62,9.61 Z" id="Shape"/> <path d="M12.374,14.202 L12.374,17.07 C12.374,17.526 12.752,17.898 13.218,17.898 L14.648,17.898 L14.648,13.374 L13.218,13.374 C12.752,13.374 12.374,13.746 12.374,14.202 L12.374,14.202 Z" id="Shape"/> <path d="M17.442,2 L2,2 L2,22 L22,22 L22,6.47 C22,4.004 19.956,2 17.442,2 L17.442,2 Z M9.958,13.306 C9.958,14.57 8.91,15.598 7.62,15.598 L6.19,15.598 L6.19,19.362 L4.696,19.362 L4.696,8.146 L7.62,8.146 C8.908,8.146 9.958,9.174 9.958,10.438 L9.958,13.306 L9.958,13.306 Z M16.142,19.362 L13.218,19.362 C11.93,19.362 10.88,18.334 10.88,17.07 L10.88,14.202 C10.88,12.938 11.928,11.91 13.218,11.91 L14.648,11.91 L14.648,8.146 C15.472,8.146 16.142,8.802 16.142,9.61 L16.142,19.362 L16.142,19.362 Z" id="Shape"/> </g> </g></symbol>
<symbol id="ico-preview" viewBox="0 0 24 24"><g id="Symbols" stroke="none" stroke-width="1" fill-rule="evenodd"> <g id="ico/preview/24"> <path d="M12,9.54545455 C10.4937689,9.54545455 9.27272727,10.7664961 9.27272727,12.2727273 C9.27272727,13.7789584 10.4937689,15 12,15 C13.5062311,15 14.7272727,13.7789584 14.7272727,12.2727273 C14.7272727,10.7664961 13.5062311,9.54545455 12,9.54545455 L12,9.54545455 Z M12,16.8181818 C9.48961477,16.8181818 7.45454545,14.7831125 7.45454545,12.2727273 C7.45454545,9.76234205 9.48961477,7.72727273 12,7.72727273 C14.5103852,7.72727273 16.5454545,9.76234205 16.5454545,12.2727273 C16.5454545,14.7831125 14.5103852,16.8181818 12,16.8181818 L12,16.8181818 Z M12,5.45454545 C7.45454545,5.45454545 3.57272727,8.28181818 2,12.2727273 C3.57272727,16.2636364 7.45454545,19.0909091 12,19.0909091 C16.5454545,19.0909091 20.4272727,16.2636364 22,12.2727273 C20.4272727,8.28181818 16.5454545,5.45454545 12,5.45454545 Z" id="Shape"/> </g> </g></symbol>
<symbol id="ico-radio-on" viewBox="0 0 16 16"><g id="Symbols" stroke="none" stroke-width="1" fill-rule="evenodd"> <g id="ico/radio-on/16"> <g id="ipt/radio/on"> <circle id="Oval-5" cx="8" cy="8.23339844" r="4"/> <path d="M8,15 L8,15 C11.8659932,15 15,11.8659932 15,8 C15,4.13400675 11.8659932,1 8,1 C4.13400675,1 1,4.13400675 1,8 C1,11.8659932 4.13400675,15 8,15 L8,15 Z M8,16 L8,16 C3.581722,16 0,12.418278 0,8 C0,3.581722 3.581722,0 8,0 C12.418278,0 16,3.581722 16,8 C16,12.418278 12.418278,16 8,16 L8,16 Z" id="Oval-4"/> </g> </g> </g></symbol>
<symbol id="ico-radio" viewBox="0 0 16 16"><g id="Symbols" stroke="none" stroke-width="1" fill-rule="evenodd"> <g id="ico/radio/16"> <g id="ipt/radio/default"> <path d="M8,15 L8,15 C11.8659932,15 15,11.8659932 15,8 C15,4.13400675 11.8659932,1 8,1 C4.13400675,1 1,4.13400675 1,8 C1,11.8659932 4.13400675,15 8,15 L8,15 Z M8,16 L8,16 C3.581722,16 0,12.418278 0,8 C0,3.581722 3.581722,0 8,0 C12.418278,0 16,3.581722 16,8 C16,12.418278 12.418278,16 8,16 L8,16 Z" id="Radio-Button---Not-Selected"/> </g> </g> </g></symbol>
<symbol id="ico-search" viewBox="0 0 24 24"><g id="Symbols" stroke="none" stroke-width="1" fill-rule="evenodd"> <g id="ico/search/24"> <path d="M22,20.462 C22,20.878 21.848,21.238 21.544,21.544 C21.24,21.848 20.878,22 20.462,22 C20.03,22 19.668,21.848 19.38,21.544 L15.258,17.432 C13.824,18.426 12.224,18.922 10.462,18.922 C9.316,18.922 8.22,18.7 7.174,18.254 C6.128,17.808 5.226,17.208 4.47,16.452 C3.714,15.696 3.112,14.794 2.668,13.748 C2.222,12.704 2,11.608 2,10.462 C2,9.316 2.222,8.22 2.668,7.174 C3.114,6.128 3.714,5.226 4.47,4.47 C5.226,3.714 6.128,3.112 7.174,2.668 C8.22,2.224 9.316,2 10.462,2 C11.608,2 12.704,2.222 13.75,2.668 C14.796,3.112 15.698,3.714 16.454,4.47 C17.21,5.226 17.812,6.128 18.256,7.174 C18.7,8.22 18.924,9.316 18.924,10.462 C18.924,12.226 18.426,13.824 17.434,15.258 L21.556,19.38 C21.852,19.676 22,20.036 22,20.462 L22,20.462 Z M14.266,14.266 C15.32,13.212 15.846,11.944 15.846,10.462 C15.846,8.98 15.318,7.712 14.266,6.658 C13.212,5.604 11.944,5.078 10.462,5.078 C8.98,5.078 7.712,5.606 6.658,6.658 C5.604,7.712 5.078,8.98 5.078,10.462 C5.078,11.944 5.604,13.212 6.658,14.266 C7.712,15.32 8.98,15.846 10.462,15.846 C11.944,15.846 13.212,15.32 14.266,14.266 L14.266,14.266 Z" id="Shape"/> </g> </g></symbol>
<symbol id="ico-settings" viewBox="0 0 24 24"><g id="Symbols" stroke="none" stroke-width="1" fill-rule="evenodd"> <g id="ico/settings/24"> <path d="M21.896,10.276 C21.826,10.184 21.736,10.13 21.622,10.112 L19.24,9.748 C19.11,9.332 18.932,8.906 18.706,8.472 C18.862,8.256 19.096,7.95 19.408,7.554 C19.72,7.16 19.942,6.87 20.072,6.688 C20.142,6.592 20.176,6.492 20.176,6.388 C20.176,6.266 20.146,6.172 20.084,6.102 C19.772,5.658 19.056,4.922 17.936,3.888 C17.832,3.802 17.724,3.758 17.61,3.758 C17.48,3.758 17.376,3.796 17.298,3.876 L15.45,5.27 C15.094,5.088 14.704,4.926 14.278,4.788 L13.914,2.39 C13.906,2.276 13.856,2.184 13.764,2.11 C13.672,2.036 13.566,2 13.444,2 L10.554,2 C10.302,2 10.146,2.122 10.086,2.364 C9.972,2.798 9.848,3.606 9.708,4.786 C9.3,4.918 8.904,5.082 8.522,5.282 L6.726,3.888 C6.612,3.802 6.5,3.758 6.388,3.758 C6.196,3.758 5.788,4.068 5.158,4.688 C4.528,5.308 4.102,5.776 3.876,6.088 C3.798,6.202 3.758,6.3 3.758,6.388 C3.758,6.492 3.8,6.596 3.888,6.7 C4.47,7.404 4.934,8.002 5.282,8.498 C5.066,8.898 4.896,9.298 4.774,9.696 L2.352,10.06 C2.256,10.078 2.174,10.134 2.104,10.23 C2.034,10.326 2,10.426 2,10.53 L2,13.42 C2,13.534 2.034,13.634 2.104,13.726 C2.174,13.818 2.264,13.872 2.378,13.89 L4.76,14.24 C4.882,14.666 5.058,15.094 5.294,15.528 C5.138,15.744 4.904,16.05 4.59,16.446 C4.276,16.842 4.056,17.13 3.926,17.312 C3.856,17.408 3.822,17.506 3.822,17.612 C3.822,17.724 3.852,17.824 3.914,17.91 C4.252,18.378 4.968,19.108 6.062,20.098 C6.158,20.194 6.266,20.24 6.388,20.24 C6.518,20.24 6.626,20.2 6.714,20.122 L8.55,18.728 C8.906,18.91 9.296,19.07 9.722,19.21 L10.086,21.606 C10.094,21.72 10.144,21.812 10.236,21.886 C10.328,21.96 10.434,21.996 10.556,21.996 L13.446,21.996 C13.698,21.996 13.854,21.874 13.916,21.632 C14.028,21.198 14.154,20.39 14.294,19.21 C14.702,19.08 15.098,18.916 15.478,18.716 L17.276,20.122 C17.396,20.2 17.51,20.24 17.614,20.24 C17.804,20.24 18.212,19.932 18.838,19.316 C19.464,18.7 19.892,18.23 20.126,17.908 C20.204,17.822 20.244,17.722 20.244,17.61 C20.244,17.496 20.2,17.388 20.114,17.284 C19.488,16.52 19.024,15.92 18.72,15.486 C18.894,15.164 19.064,14.77 19.228,14.302 L21.636,13.94 C21.74,13.922 21.828,13.866 21.896,13.77 C21.966,13.674 22,13.574 22,13.47 L22,10.58 C22,10.468 21.966,10.366 21.896,10.276 L21.896,10.276 L21.896,10.276 Z M14.358,14.358 C13.708,15.008 12.922,15.334 12.002,15.334 C11.082,15.334 10.296,15.008 9.646,14.358 C8.994,13.706 8.668,12.922 8.668,12.002 C8.668,11.082 8.994,10.296 9.646,9.644 C10.296,8.994 11.082,8.668 12.002,8.668 C12.922,8.668 13.708,8.994 14.358,9.644 C15.008,10.296 15.334,11.08 15.334,12.002 C15.334,12.92 15.008,13.706 14.358,14.358 L14.358,14.358 L14.358,14.358 Z" id="Shape"/> </g> </g></symbol>
<symbol id="ico-tasks" viewBox="0 0 24 24"><g id="Symbols" stroke="none" stroke-width="1" fill-rule="evenodd"> <g id="ico/tasks/24"> <path d="M8.366,4.858 C8.364,4.55 8.366,4.248 8.38,3.946 C8.41,3.342 8.848,2.912 9.384,2.9 C9.76,2.892 10.138,2.898 10.53,2.898 C10.536,2.77 10.536,2.666 10.544,2.562 C10.57,2.254 10.76,2.01 11.01,2.006 C11.664,1.998 12.318,1.998 12.97,2.006 C13.232,2.01 13.404,2.224 13.438,2.552 C13.448,2.656 13.454,2.762 13.462,2.896 C13.826,2.896 14.18,2.894 14.532,2.896 C15.234,2.9 15.624,3.386 15.628,4.262 C15.628,4.46 15.632,4.658 15.63,4.856 L8.366,4.856 L8.366,4.858 Z M21,21.98 L21,4.876 C21,4.864 20.99,4.856 20.98,4.856 L3.02,4.856 C3.01,4.856 3,4.864 3,4.876 L3,21.98 C3,21.99 3.01,22 3.02,22 L20.98,22 C20.99,22 21,21.99 21,21.98 L21,21.98 Z M6.556,16.552 C6.556,16.026 6.742,15.6 6.972,15.6 L17.026,15.6 C17.256,15.6 17.442,16.026 17.442,16.552 C17.442,17.078 17.256,17.504 17.026,17.504 L6.974,17.504 C6.744,17.506 6.556,17.078 6.556,16.552 L6.556,16.552 Z M6.558,9.5 C6.558,8.974 6.744,8.548 6.974,8.548 L17.026,8.548 C17.256,8.548 17.442,8.974 17.442,9.5 C17.442,10.026 17.256,10.452 17.026,10.452 L6.974,10.452 C6.744,10.452 6.558,10.024 6.558,9.5 L6.558,9.5 Z M6.558,13.002 C6.558,12.474 6.744,12.046 6.974,12.046 L17.026,12.046 C17.256,12.046 17.442,12.474 17.442,13.002 C17.442,13.526 17.256,13.95 17.026,13.95 L6.974,13.95 C6.744,13.95 6.558,13.524 6.558,13.002 L6.558,13.002 Z" id="Shape"/> </g> </g></symbol>
<symbol id="ico-triangle-down" viewBox="0 0 16 16"><g id="Symbols" stroke="none" stroke-width="1" fill-rule="evenodd"> <g id="ico/triangle-down/24"> <polygon id="Shape" points="2 5 8 11 14 5"/> </g> </g></symbol>
<symbol id="ico-triangle-left" viewBox="0 0 16 16"><g id="Symbols" stroke="none" stroke-width="1" fill-rule="evenodd"> <g id="ico/triangle-left/24"> <polygon id="Triangle-1" points="11 13 11 3 4 8"/> </g> </g></symbol>
<symbol id="ico-user" viewBox="0 0 24 24"><g id="Symbols" stroke="none" stroke-width="1" fill-rule="evenodd"> <g id="ico/user/24"> <path d="M20.9843818,20.496 L20.8750542,20.608 C20.5509761,20.934 18.9559653,22 12,22 C4.98937093,22 3.43145336,20.944 3.12104121,20.622 L3.01366594,20.51 L3.02342733,20.35 C3.05856833,19.772 3.16203905,18.356 3.37678959,17.702 C3.65010846,16.86 3.98785249,16.482 4.40954447,16.174 C4.61453362,16.024 5.37982646,15.706 6.52386117,15.238 C7.58394794,14.804 8.76898048,14.318 9.19457701,14.054 C9.5537961,13.83 9.98720174,12.754 9.8681128,12.384 C9.83492408,12.282 9.67874187,12.094 9.6143167,12.016 L9.61236443,12.014 C9.61041215,12.01 9.60650759,12.008 9.60455531,12.004 C9.15357918,11.464 8.55813449,10.424 8.31214751,9.418 C7.97635575,8.044 7.7186551,5.262 8.8802603,3.546 C9.54013015,2.572 10.5670282,2.052 11.9336226,2.004 L11.9687636,2.002 L12.0722343,2.004 C13.4388286,2.052 14.4657267,2.57 15.1255965,3.544 C16.2852495,5.258 16.0295011,8.042 15.6937093,9.416 C15.4477223,10.424 14.8503254,11.464 14.397397,12.004 C14.172885,12.272 14.1416486,12.348 14.137744,12.364 C14.1279826,12.708 14.4247289,13.812 14.8093275,14.052 C15.2349241,14.316 16.4199566,14.802 17.4644252,15.23 C18.6143167,15.7 19.3854664,16.02 19.5924078,16.172 C20.0140998,16.48 20.3518438,16.858 20.6251627,17.7 C20.837961,18.352 20.9414317,19.756 20.9765727,20.33 L20.9843818,20.496 L20.9843818,20.496 Z" id="Shape"/> </g> </g></symbol>
<symbol id="ico-warning" viewBox="0 0 24 24"><g id="Symbols" stroke="none" stroke-width="1" fill-rule="evenodd"> <g id="ico/warning/24"> <path d="M21.908,20.192 C21.8,20.34 21.608,20.432 21.404,20.432 L2.594,20.432 C2.388,20.432 2.196,20.338 2.088,20.184 C1.98,20.03 1.97,19.836 2.068,19.678 L11.8,3.288 C11.904,3.114 12.114,3.006 12.336,3.01 C12.562,3.012 12.764,3.126 12.862,3.304 L21.94,19.69 C22.028,19.85 22.02,20.042 21.908,20.192 Z M12.08,14.508 L12.58,14.508 C12.862,13.094 13.088,11.956 13.254,11.096 C13.42,10.236 13.546,9.552 13.628,9.044 C13.708,8.542 13.76,8.166 13.784,7.92 C13.808,7.672 13.818,7.46 13.818,7.282 C13.834,6.894 13.686,6.516 13.41,6.244 C12.782,5.718 11.874,5.718 11.246,6.244 C10.97,6.516 10.822,6.894 10.838,7.282 C10.838,7.464 10.85,7.676 10.872,7.92 C10.898,8.158 10.952,8.536 11.034,9.05 C11.116,9.566 11.24,10.25 11.408,11.102 C11.572,11.962 11.796,13.098 12.08,14.508 Z M11.3,16.172 C11.018,16.444 10.862,16.82 10.866,17.214 C10.856,17.598 11.012,17.968 11.294,18.226 C11.876,18.764 12.77,18.764 13.354,18.226 C13.634,17.966 13.79,17.598 13.782,17.214 C13.782,16.826 13.628,16.452 13.356,16.178 C12.788,15.604 11.866,15.602 11.298,16.176 L11.3,16.172 Z" id="Shape"/> </g> </g></symbol>
</svg>